<?xml version="1.0"?>
<svg xmlns="http://www.w3.org/2000/svg" xmlns:xlink="http://www.w3.org/1999/xlink" xmlns:svgjs="http://svgjs.com/svgjs" version="1.1" width="512" height="512" x="0" y="0" viewBox="0 0 64 64" style="enable-background:new 0 0 512 512" xml:space="preserve" class=""><g><circle xmlns="http://www.w3.org/2000/svg" cx="12.5" cy="43.5" fill="#dee5ed" r="11.5" data-original="#ef790f" style="" class=""/><g xmlns="http://www.w3.org/2000/svg" fill="#ef9143"><path d="m12 44-8.21 7a11.34 11.34 0 0 1 -2.79-7.28z" fill="#abb8c5" data-original="#ef9143" style="" class=""/><path d="m12.65 32-.65 12-6.3-9.77a11.42 11.42 0 0 1 6.8-2.23z" fill="#abb8c5" data-original="#ef9143" style="" class=""/><path d="m23.29 47.49a11.52 11.52 0 0 1 -2.94 4.41l-8.35-7.9z" fill="#abb8c5" data-original="#ef9143" style="" class=""/></g><circle xmlns="http://www.w3.org/2000/svg" cx="51.5" cy="44.5" fill="#dee5ed" r="11.5" data-original="#ef790f" style="" class=""/><path xmlns="http://www.w3.org/2000/svg" d="m52 45 8.21 7a11.34 11.34 0 0 0 2.79-7.28z" fill="#abb8c5" data-original="#ef9143" style="" class=""/><path xmlns="http://www.w3.org/2000/svg" d="m51.35 33 .65 12 6.3-9.77a11.42 11.42 0 0 0 -6.8-2.23z" fill="#abb8c5" data-original="#ef9143" style="" class=""/><path xmlns="http://www.w3.org/2000/svg" d="m40.71 48.49a11.52 11.52 0 0 0 2.94 4.41l8.35-7.9z" fill="#abb8c5" data-original="#ef9143" style="" class=""/><circle xmlns="http://www.w3.org/2000/svg" cx="31" cy="43" fill="#279ecc" r="3" data-original="#279ecc" style=""/><path xmlns="http://www.w3.org/2000/svg" d="m12.5 56a12.51 12.51 0 0 0 12.4-11h2.65a4 4 0 1 0 5.9-5.13l12.11-15.67.63 2.31a1 1 0 1 0 1.93-.51l-1.12-4.13v-6.87h7v1.66a2.34 2.34 0 0 1 -2.34 2.34h-.66a1 1 0 0 0 0 2h.66a4.35 4.35 0 0 0 4.34-4.34v-2.15l2.34-1.7a1 1 0 1 0 -1.18-1.62l-2.49 1.81h-8.67a1 1 0 0 0 -1 1v7h-21.66l-2.85-7h2.51a1 1 0 0 0 0-2h-8a1 1 0 0 0 0 2h3.33l2.85 7h-.18a1 1 0 0 0 -.93.62l-4 9.89a12.45 12.45 0 0 0 -8.69.6 1 1 0 1 0 .83 1.82 10.4 10.4 0 0 1 7.1-.55l-4.24 10.24a1 1 0 0 0 .93 1.38h10.88a10.49 10.49 0 1 1 -18.34-8.35 1 1 0 1 0 -1.54-1.3 12.5 12.5 0 0 0 9.5 20.65zm18.5-11a2 2 0 1 1 2-2 2 2 0 0 1 -2 2zm13-22-12.44 16.06a3.94 3.94 0 0 0 -.56-.06c-.11 0-.21 0-.31 0l-6.54-16zm-22.33 0h.33l6.79 16.67a4 4 0 0 0 -1.79 3.33h-2a12.5 12.5 0 0 0 -7.08-10.76zm-4.54 11.09a10.5 10.5 0 0 1 5.87 8.91h-9.51z" fill="#072451" data-original="#072451" style=""/><path xmlns="http://www.w3.org/2000/svg" d="m51.5 32a12.49 12.49 0 0 0 -1.7.13l-.65-2.39a1 1 0 1 0 -1.93.53l.62 2.28a12.5 12.5 0 1 0 3.66-.55zm0 23a10.5 10.5 0 0 1 -3.13-20.52l2.63 9.78a1 1 0 0 0 2-.52l-2.64-9.67a10.5 10.5 0 1 1 1.14 20.93z" fill="#072451" data-original="#072451" style=""/></g></svg>
