<svg id="Layer_1_copy" height="512" viewBox="0 0 64 64" width="512" xmlns="http://www.w3.org/2000/svg" xmlns:xlink="http://www.w3.org/1999/xlink" data-name="Layer 1 copy"><linearGradient id="linear-gradient" gradientUnits="userSpaceOnUse" x1="78.61" x2="15.96" y1="16.61" y2="79.26"><stop offset="0" stop-color="#f7941e"/><stop offset="1" stop-color="#ee2a7b"/></linearGradient><linearGradient id="linear-gradient-2" x1="57.56" x2="-5.09" xlink:href="#linear-gradient" y1="-4.44" y2="58.21"/><path d="m51.5 32a12.49 12.49 0 0 0 -1.7.13l-.65-2.39a1 1 0 1 0 -1.93.53l.62 2.28a12.5 12.5 0 1 0 3.66-.55zm0 23a10.5 10.5 0 0 1 -3.13-20.52l2.63 9.78a1 1 0 0 0 2-.52l-2.64-9.67a10.5 10.5 0 1 1 1.14 20.93z" fill="url(#linear-gradient)"/><path d="m33.46 39.87 12.1-15.67.63 2.31a1 1 0 1 0 1.93-.51l-1.12-4.13v-6.87h7v1.66a2.34 2.34 0 0 1 -2.34 2.34h-.66a1 1 0 0 0 0 2h.66a4.35 4.35 0 0 0 4.34-4.34v-2.15l2.34-1.7a1 1 0 1 0 -1.18-1.62l-2.49 1.81h-8.67a1 1 0 0 0 -1 1v7h-21.66l-2.85-7h2.51a1 1 0 0 0 0-2h-8a1 1 0 0 0 0 2h3.33l2.85 7h-.18a1 1 0 0 0 -.93.62l-4 9.89a12.45 12.45 0 0 0 -8.69.6 1 1 0 1 0 .83 1.82 10.4 10.4 0 0 1 7.1-.55l-4.24 10.24a1 1 0 0 0 .93 1.38h10.88a10.49 10.49 0 1 1 -18.34-8.35 1 1 0 1 0 -1.54-1.3 12.5 12.5 0 1 0 21.9 9.65h2.65a4 4 0 1 0 5.9-5.13zm10.54-16.87-12.44 16.06a3.94 3.94 0 0 0 -.56-.06c-.11 0-.21 0-.31 0l-6.54-16zm-22.33 0h.33l6.79 16.67a4 4 0 0 0 -1.79 3.33h-2a12.5 12.5 0 0 0 -7.08-10.76zm-4.54 11.09a10.5 10.5 0 0 1 5.87 8.91h-9.51zm13.87 10.91a2 2 0 1 1 2-2 2 2 0 0 1 -2 2z" fill="url(#linear-gradient-2)"/></svg>